<?xml version="1.0" standalone="no"?><!DOCTYPE svg PUBLIC "-//W3C//DTD SVG 1.1//EN" "http://www.w3.org/Graphics/SVG/1.1/DTD/svg11.dtd"><svg class="icon" width="200px" height="200.00px" viewBox="0 0 1024 1024" version="1.1" xmlns="http://www.w3.org/2000/svg"><path fill="#000000" d="M640 42.666667a42.666667 42.666667 0 0 1 30.165333 12.501333l213.333334 213.333333A42.666667 42.666667 0 0 1 896 298.666667v597.333333a85.333333 85.333333 0 0 1-85.333333 85.333333H213.333333a85.333333 85.333333 0 0 1-85.333333-85.333333V128a85.333333 85.333333 0 0 1 85.333333-85.333333h426.666667zM384 341.333333c-2.517333 0-4.992 0.256-7.381333 0.682667l-1.109334 0.170667-2.048 0.469333c-0.682667 0.170667-1.365333 0.298667-2.005333 0.512a42.538667 42.538667 0 0 0-13.226667 6.826667c-0.426667 0.384-0.981333 0.682667-1.450666 1.109333A42.624 42.624 0 0 0 341.333333 384v341.333333a42.666667 42.666667 0 1 0 85.333334 0v-128.042666l213.376-0.128a42.666667 42.666667 0 0 0 42.624-42.666667V384a42.666667 42.666667 0 0 0-42.666667-42.666667H384z m213.333333 170.496L426.794667 512 426.666667 426.666667H597.333333v85.162666z"  /></svg>