<?xml version="1.0" standalone="no"?><!DOCTYPE svg PUBLIC "-//W3C//DTD SVG 1.1//EN" "http://www.w3.org/Graphics/SVG/1.1/DTD/svg11.dtd"><svg class="icon" width="200px" height="200.00px" viewBox="0 0 1024 1024" version="1.1" xmlns="http://www.w3.org/2000/svg"><path fill="#000000" d="M511.957333 85.333333A426.752 426.752 0 0 1 938.666667 511.957333a426.752 426.752 0 0 1-263.381334 394.24A426.666667 426.666667 0 1 1 512 85.333333z m21.077334 305.365334c-37.674667 0-93.184 40.106667-127.018667 90.88 0 6.058667-1.066667 21.077333 0.213333 30.08l44.885334-54.101334c9.386667-10.197333 20.138667-17.365333 25.6-15.36 5.546667 1.962667 8.533333 8.362667 6.656 14.421334L408.96 703.146667c-8.576 28.8 7.68 57.173333 47.146667 63.658666 57.856 0 92.330667-39.168 126.122666-89.941333 0-5.973333 2.005333-22.016 0.810667-31.146667l-44.928 54.101334c-9.344 10.24-20.906667 17.408-26.453333 15.445333-5.034667-1.834667-7.978667-7.424-7.04-13.056l74.965333-247.765333c6.186667-31.402667-10.666667-60.032-46.506667-63.744z m39.168-138.410667c-28.416 0-51.498667 20.736-51.498667 51.242667 0 30.592 23.04 51.285333 51.498667 51.285333 28.501333 0 51.541333-20.693333 51.541333-51.285333 0-30.506667-23.04-51.2-51.541333-51.2z"  /></svg>